# xmcd
#
# Track frame offsets:
#	150
#	31057
#	50776
#	74061
#	98800
#	119729
#	134741
#	153352
#	164513
#	187521
#	213411
#	233279
#	256958
#
# Disc length: 3656 seconds
#
# Revision: 1
# Processed by: cddbd v1.5.2PL0 Copyright (c) Steve Scherf et al.
# Submitted via: audiograbber 1.83.01
#
DISCID=b60e460d
DTITLE=Tom Millar - High Country Dawn
DYEAR=1998
DGENRE=Alternative
TTITLE0=The Sky Is Full Of Tears (Instrumental)
TTITLE1=Red Rain
TTITLE2=And I Laid My Darling Down
TTITLE3=Instrumentality
TTITLE4=Bachelors and Spinsters
TTITLE5=Movement 1 (Contemplation)
TTITLE6=Movement 2 (Journey)
TTITLE7=Movement 3 (Reminisce)
TTITLE8=So Young
TTITLE9=Jagungal Dreaming
TTITLE10=High Country Dawn
TTITLE11=The Sky Is Full Of Tears (Song)
TTITLE12=summer rain on the tin roof of a mountain hut
EXTD=
EXTT0=
EXTT1=
EXTT2=
EXTT3=
EXTT4=
EXTT5=
EXTT6=
EXTT7=
EXTT8=
EXTT9=
EXTT10=
EXTT11=
EXTT12=
PLAYORDER=
